<mxfile host="app.diagrams.net" modified="2022-03-21T10:39:44.419Z" agent="5.0 (Macintosh; Intel Mac OS X 10_15_7) AppleWebKit/605.1.15 (KHTML, like Gecko) Version/15.4 Safari/605.1.15" etag="VAGDVPRVggL_KMe04GD6" version="17.1.3" type="github">
  <diagram name="Page-1" id="edf60f1a-56cd-e834-aa8a-f176f3a09ee4">
    <mxGraphModel dx="757" dy="442" grid="1" gridSize="10" guides="1" tooltips="1" connect="1" arrows="1" fold="1" page="1" pageScale="1" pageWidth="1100" pageHeight="850" background="none" math="0" shadow="0">
      <root>
        <mxCell id="0" />
        <mxCell id="1" parent="0" />
        <mxCell id="rDOJvT7Qm0CWv2PzxgvL-2" value="CORSO" style="rounded=0;whiteSpace=wrap;html=1;fillColor=#f8cecc;strokeColor=#b85450;" vertex="1" parent="1">
          <mxGeometry x="380" y="40" width="120" height="60" as="geometry" />
        </mxCell>
        <mxCell id="rDOJvT7Qm0CWv2PzxgvL-5" value="" style="endArrow=classic;html=1;rounded=0;edgeStyle=orthogonalEdgeStyle;" edge="1" parent="1">
          <mxGeometry width="50" height="50" relative="1" as="geometry">
            <mxPoint x="380" y="80" as="sourcePoint" />
            <mxPoint x="330" y="160" as="targetPoint" />
          </mxGeometry>
        </mxCell>
        <mxCell id="rDOJvT7Qm0CWv2PzxgvL-11" value="" style="edgeStyle=orthogonalEdgeStyle;rounded=0;orthogonalLoop=1;jettySize=auto;html=1;" edge="1" parent="1" source="rDOJvT7Qm0CWv2PzxgvL-7" target="rDOJvT7Qm0CWv2PzxgvL-10">
          <mxGeometry relative="1" as="geometry" />
        </mxCell>
        <mxCell id="rDOJvT7Qm0CWv2PzxgvL-7" value="Modulo 1" style="rounded=0;whiteSpace=wrap;html=1;fillColor=#dae8fc;strokeColor=#6c8ebf;" vertex="1" parent="1">
          <mxGeometry x="270" y="160" width="120" height="60" as="geometry" />
        </mxCell>
        <mxCell id="rDOJvT7Qm0CWv2PzxgvL-8" value="" style="endArrow=classic;html=1;rounded=0;edgeStyle=orthogonalEdgeStyle;" edge="1" parent="1">
          <mxGeometry width="50" height="50" relative="1" as="geometry">
            <mxPoint x="270" y="200" as="sourcePoint" />
            <mxPoint x="230.03999999999996" y="260" as="targetPoint" />
          </mxGeometry>
        </mxCell>
        <mxCell id="rDOJvT7Qm0CWv2PzxgvL-21" value="" style="edgeStyle=orthogonalEdgeStyle;rounded=0;orthogonalLoop=1;jettySize=auto;html=1;" edge="1" parent="1" source="rDOJvT7Qm0CWv2PzxgvL-10" target="rDOJvT7Qm0CWv2PzxgvL-20">
          <mxGeometry relative="1" as="geometry" />
        </mxCell>
        <mxCell id="rDOJvT7Qm0CWv2PzxgvL-26" value="" style="edgeStyle=orthogonalEdgeStyle;rounded=0;orthogonalLoop=1;jettySize=auto;html=1;" edge="1" parent="1" source="rDOJvT7Qm0CWv2PzxgvL-10" target="rDOJvT7Qm0CWv2PzxgvL-25">
          <mxGeometry relative="1" as="geometry" />
        </mxCell>
        <mxCell id="rDOJvT7Qm0CWv2PzxgvL-10" value="Modulo 2" style="whiteSpace=wrap;html=1;fillColor=#dae8fc;strokeColor=#6c8ebf;rounded=0;" vertex="1" parent="1">
          <mxGeometry x="470" y="160" width="120" height="60" as="geometry" />
        </mxCell>
        <mxCell id="rDOJvT7Qm0CWv2PzxgvL-30" value="" style="edgeStyle=orthogonalEdgeStyle;rounded=0;orthogonalLoop=1;jettySize=auto;html=1;" edge="1" parent="1" source="rDOJvT7Qm0CWv2PzxgvL-20" target="rDOJvT7Qm0CWv2PzxgvL-29">
          <mxGeometry relative="1" as="geometry" />
        </mxCell>
        <mxCell id="rDOJvT7Qm0CWv2PzxgvL-20" value="Quiz" style="whiteSpace=wrap;html=1;aspect=fixed;fillColor=#d5e8d4;strokeColor=#82b366;" vertex="1" parent="1">
          <mxGeometry x="650" y="160" width="60" height="60" as="geometry" />
        </mxCell>
        <mxCell id="rDOJvT7Qm0CWv2PzxgvL-24" value="" style="edgeStyle=orthogonalEdgeStyle;rounded=0;orthogonalLoop=1;jettySize=auto;html=1;" edge="1" parent="1" source="rDOJvT7Qm0CWv2PzxgvL-22" target="rDOJvT7Qm0CWv2PzxgvL-23">
          <mxGeometry relative="1" as="geometry" />
        </mxCell>
        <mxCell id="rDOJvT7Qm0CWv2PzxgvL-22" value="Contenuto" style="whiteSpace=wrap;html=1;aspect=fixed;fillColor=#d5e8d4;strokeColor=#82b366;" vertex="1" parent="1">
          <mxGeometry x="200" y="260" width="60" height="60" as="geometry" />
        </mxCell>
        <mxCell id="rDOJvT7Qm0CWv2PzxgvL-23" value="Contenuto" style="whiteSpace=wrap;html=1;aspect=fixed;fillColor=#d5e8d4;strokeColor=#82b366;" vertex="1" parent="1">
          <mxGeometry x="200" y="350" width="60" height="60" as="geometry" />
        </mxCell>
        <mxCell id="rDOJvT7Qm0CWv2PzxgvL-28" value="" style="edgeStyle=orthogonalEdgeStyle;rounded=0;orthogonalLoop=1;jettySize=auto;html=1;" edge="1" parent="1" source="rDOJvT7Qm0CWv2PzxgvL-25" target="rDOJvT7Qm0CWv2PzxgvL-27">
          <mxGeometry relative="1" as="geometry" />
        </mxCell>
        <mxCell id="rDOJvT7Qm0CWv2PzxgvL-25" value="Contenuto" style="whiteSpace=wrap;html=1;aspect=fixed;fillColor=#d5e8d4;strokeColor=#82b366;" vertex="1" parent="1">
          <mxGeometry x="500" y="250" width="60" height="60" as="geometry" />
        </mxCell>
        <mxCell id="rDOJvT7Qm0CWv2PzxgvL-27" value="Contenuto" style="whiteSpace=wrap;html=1;aspect=fixed;fillColor=#d5e8d4;strokeColor=#82b366;" vertex="1" parent="1">
          <mxGeometry x="500" y="350" width="60" height="60" as="geometry" />
        </mxCell>
        <mxCell id="rDOJvT7Qm0CWv2PzxgvL-29" value="Attestato" style="whiteSpace=wrap;html=1;aspect=fixed;fillColor=#d5e8d4;strokeColor=#82b366;" vertex="1" parent="1">
          <mxGeometry x="750" y="160" width="60" height="60" as="geometry" />
        </mxCell>
      </root>
    </mxGraphModel>
  </diagram>
</mxfile>
